<?xml version="1.0" encoding="utf-8"?>
<!-- Generator: Adobe Illustrator 18.0.0, SVG Export Plug-In . SVG Version: 6.00 Build 0)  -->
<!DOCTYPE svg PUBLIC "-//W3C//DTD SVG 1.1//EN" "http://www.w3.org/Graphics/SVG/1.1/DTD/svg11.dtd">
<svg version="1.1" id="Слой_1" xmlns="http://www.w3.org/2000/svg" xmlns:xlink="http://www.w3.org/1999/xlink" x="0px" y="0px"
	 width="194.3px" height="35.7px" viewBox="-157 451.4 194.3 35.7" enable-background="new -157 451.4 194.3 35.7"
	 xml:space="preserve">
<g id="Layer_2">
</g>
<g>
	<path fill="none" stroke="#FFFFFF" stroke-width="3" stroke-miterlimit="10" d="M-145.8,482.6c1.8,1.4,3.4,2.2,6.5,2.2
		c3.2,0,5.8-0.9,8.5-3.8c0.1-0.1,1.2-1.4,1.2-1.4s2.2-3.7,2.8-5.8c0,0,0,0,0-0.1v0.1l0,0c1.1,0,2-0.5,2.8-1.3
		c0.7-0.8,1.1-1.8,1.1-2.9l0,0v-0.1c0-1.1-0.5-2.1-1.2-2.8c-0.7-0.7-1.5-1.1-2.3-1.2c-1.3-7.3-6.5-12.7-12.7-12.7
		c-6.4,0-11.8,5.7-12.8,13.3c-1,0.1-1.8,0.6-2.4,1.3c-0.7,0.8-1.1,1.8-1.1,2.9l0,0c0,0.1,0,0.1,0,0.2c0.1,2.2,1.8,4,4,4h0.1v-0.1
		c0.6,2,2,4.6,2.8,5.5C-148.3,480.5-147.4,481.6-145.8,482.6z"/>
	<path fill="#FFEEDE" d="M-127,474L-127,474L-127,474C-127,473.9-127,473.9-127,474z"/>
	<path fill="#FFEEDE" d="M-125.4,471.4c0.4-0.4,0.6-1,0.6-1.6v-0.1c0-0.7-0.3-1.3-0.7-1.7c-0.1-0.1-0.1-0.1-0.2-0.2
		c-0.2-0.2-0.4-0.3-0.7-0.4v0.1c0,0,0,0,0,0.1c0,0.4,0,0.9,0,1.3c0,1.1-0.1,2-0.3,3.1C-126.1,471.9-125.7,471.7-125.4,471.4z"/>
	<path fill="#FFEEDE" d="M-152.3,468.2L-152.3,468.2c0-0.1,0-0.1,0-0.2c-0.3,0.1-0.5,0.2-0.7,0.4c-0.1,0.1-0.2,0.2-0.3,0.3
		c-0.4,0.5-0.6,1.1-0.6,1.7l0,0c0.1,1.2,0.9,2,1.9,2.2c-0.2-1.2-0.4-2.4-0.4-3.7C-152.3,468.7-152.3,468.5-152.3,468.2z"/>
	<path fill="#FFEEDE" d="M-139.3,454.7c-6.2,0-11.3,6.4-11.3,14.3c0,4.4,1.6,8.3,4,10.9c0.5,0.5,1,1,1.6,1.4l0,0
		c0.2,0.2,0.5,0.3,0.7,0.5c-0.1-0.2-0.1-0.3-0.2-0.5c-0.1-0.4-0.2-0.8-0.3-1.2c0-0.2,0-0.4,0-0.6c0-0.9,0.3-1.7,0.7-2.5
		c0.2-0.3,0.4-0.6,0.6-0.9c0.6-0.7,1.4-1.3,2.2-1.6c0.7-0.3,1.5-0.4,2.2-0.4c1.1,0,2.1,0.3,3,0.8c0.7,0.4,1.3,0.9,1.7,1.5
		c0.1,0.1,0.1,0.2,0.2,0.3c0.5,0.8,0.9,1.7,0.9,2.8c0,0.4-0.1,0.9-0.2,1.3c0,0.2-0.1,0.4-0.2,0.5c0,0.1-0.1,0.2-0.1,0.3
		c0.1-0.1,0.2-0.2,0.3-0.2l0,0c0.5-0.4,1.1-0.9,1.5-1.4c2.4-2.6,4-6.5,4-10.9C-128,461.1-133.1,454.7-139.3,454.7z"/>
	<path fill="#FFEEDE" d="M-136.4,476.7c-0.1-0.1-0.1-0.1-0.2-0.2c-0.7-0.6-1.7-0.9-2.6-0.9c-0.8,0-1.5,0.2-2.1,0.6
		c-0.3,0.2-0.6,0.4-0.9,0.7c-0.4,0.4-0.8,1-1,1.5c-0.1,0.3-0.2,0.7-0.2,1.1c0,0.7,0.2,1.3,0.5,1.7c0.7,1.2,2,1.9,3.6,1.9
		c1.6,0,2.9-0.8,3.6-2c0.3-0.5,0.5-1.2,0.5-1.7c0-0.4-0.1-0.9-0.2-1.3C-135.5,477.6-135.9,477.1-136.4,476.7z"/>
	<polygon points="-137.6,471.3 -137.6,471.1 -141.1,471.1 -141.1,471.3 -141.1,472.8 -137.6,472.8 	"/>
	<path d="M-144.5,468.9c-0.4,0-0.7,0.2-0.9,0.5c-0.1,0.2-0.2,0.4-0.2,0.7c0,0.6,0.5,1.2,1.1,1.2s1.1-0.5,1.1-1.2
		c0-0.3-0.1-0.5-0.2-0.7C-143.8,469.1-144.1,468.9-144.5,468.9z"/>
	<path d="M-134.6,468.6c-0.4,0-0.8,0.3-1,0.7c-0.1,0.2-0.1,0.3-0.1,0.5c0,0.6,0.5,1.2,1.1,1.2c0.6,0,1.1-0.5,1.1-1.2
		c0-0.2,0-0.3-0.1-0.5C-133.8,468.8-134.2,468.6-134.6,468.6z"/>
	
		<rect id="rightBrow" x="-147.3" y="464.1" transform="matrix(0.9974 -7.140679e-02 7.140679e-02 0.9974 -33.5732 -9.1316)" width="5.6" height="1.7"/>
	
		<rect x="-137" y="464.4" transform="matrix(-0.9971 -7.649539e-02 7.649539e-02 -0.9971 -303.5256 918.9196)" width="5.6" height="1.7"/>
	<path d="M-139.7,479.5c0.2,0,0.3,0,0.5,0s0.4,0,0.6-0.1c1-0.3,1.7-1.2,1.7-2.2h-0.3h-4.3l0,0C-141.4,478.5-140.7,479.3-139.7,479.5
		z"/>
	<path d="M-145.8,482.6c1.8,1.4,3.4,2.2,6.5,2.2c3.2,0,5.8-0.9,8.5-3.8c0.1-0.1,1.2-1.4,1.2-1.4s2.2-3.7,2.8-5.8c0,0,0,0,0-0.1v0.1
		l0,0c1.1,0,2-0.5,2.8-1.3c0.7-0.8,1.1-1.8,1.1-2.9l0,0v-0.1c0-1.1-0.5-2.1-1.2-2.8c-0.7-0.7-1.5-1.1-2.3-1.2
		c-1.3-7.3-6.5-12.7-12.7-12.7c-6.4,0-11.8,5.7-12.8,13.3c-1,0.1-1.8,0.6-2.4,1.3c-0.7,0.8-1.1,1.8-1.1,2.9l0,0c0,0.1,0,0.1,0,0.2
		c0.1,2.2,1.8,4,4,4h0.1v-0.1c0.6,2,2,4.6,2.8,5.5C-148.4,480.5-147.4,481.6-145.8,482.6z M-139.3,454.7c6.2,0,11.3,6.4,11.3,14.3
		c0,4.4-1.6,8.3-4,10.9c-0.5,0.5-1,1-1.5,1.4l0,0c-0.1,0.1-0.2,0.2-0.3,0.2c0-0.1,0.1-0.2,0.1-0.3c0.1-0.2,0.1-0.3,0.2-0.5
		c0.1-0.4,0.2-0.8,0.2-1.3c0-1.1-0.3-1.9-0.9-2.8c-0.1-0.1-0.1-0.2-0.2-0.3c-0.5-0.6-1-1.1-1.7-1.5c-0.9-0.5-1.9-0.8-3-0.8
		c-0.8,0-1.6,0.2-2.2,0.4c-0.9,0.4-1.7,0.9-2.2,1.6c-0.2,0.3-0.4,0.6-0.6,0.9c-0.4,0.8-0.7,1.7-0.7,2.5c0,0.2,0,0.4,0,0.6
		c0.1,0.4,0.1,0.8,0.3,1.2c0.1,0.2,0.1,0.3,0.2,0.5c-0.2-0.2-0.5-0.3-0.7-0.5l0,0c-0.6-0.4-1.1-0.9-1.6-1.4c-2.4-2.6-4-6.5-4-10.9
		C-150.6,461.1-145.5,454.7-139.3,454.7z M-143.3,479.4c0-0.4,0.1-0.7,0.2-1.1c0.2-0.6,0.5-1.1,1-1.5c0.3-0.3,0.6-0.5,0.9-0.7
		c0.6-0.4,1.4-0.6,2.1-0.6c1,0,1.9,0.4,2.6,0.9c0.1,0.1,0.1,0.1,0.2,0.2c0.5,0.4,0.8,0.9,1,1.5c0.1,0.4,0.2,0.8,0.2,1.3
		c0,0.7-0.2,1.3-0.5,1.7c-0.7,1.2-2,2-3.6,2c-1.6,0-2.9-0.8-3.6-1.9C-143.1,480.7-143.3,480-143.3,479.4z M-126.3,467.6
		L-126.3,467.6c0.2,0,0.5,0.1,0.7,0.3c0.1,0.1,0.1,0.1,0.2,0.2c0.4,0.5,0.7,1.1,0.7,1.7v0.1c0,0.6-0.2,1.2-0.6,1.6
		c-0.3,0.3-0.7,0.6-1.1,0.7c0.2-1,0.3-2,0.3-3.1C-126.3,468.5-126.3,468.1-126.3,467.6L-126.3,467.6z M-153.9,470.4L-153.9,470.4
		c0-0.7,0.2-1.3,0.6-1.7c0.1-0.1,0.2-0.2,0.3-0.3c0.2-0.2,0.5-0.3,0.7-0.4v0.1l0,0c0,0.2,0,0.5,0,0.7c0,1.3,0.1,2.5,0.4,3.7
		C-153,472.4-153.9,471.6-153.9,470.4z"/>
	<g>
		<path fill="#FFFFFF" d="M-112.2,461.8h14.4v4.4h-9.3v3h9.1v4.4h-9.1v3.3h9.3v4.4h-14.4C-112.2,481.4-112.2,461.8-112.2,461.8z"/>
		<path fill="#FFFFFF" d="M-92.5,486.6c-1-0.3-1.9-0.9-2.9-1.7l1.9-3.2c0.6,0.6,1.2,1,1.9,1.3c0.8,0.3,1.6,0.4,2.3,0.4
			c0.4,0,0.8,0,1.2-0.1c0.4-0.1,0.8-0.3,1.2-0.5c0.4-0.3,0.7-0.6,0.9-1c0.2-0.4,0.4-1,0.4-1.7v-1.1c-1.2,1.4-2.6,2-4.2,2
			c-0.9,0-1.7-0.2-2.4-0.5c-0.8-0.3-1.5-0.8-2-1.4c-0.6-0.6-1-1.4-1.4-2.2c-0.3-0.9-0.5-1.9-0.5-3.1s0.2-2.2,0.5-3.1
			s0.8-1.7,1.4-2.2c0.6-0.6,1.3-1.1,1.9-1.4c0.8-0.3,1.6-0.5,2.4-0.5c0.8,0,1.6,0.2,2.2,0.5c0.7,0.3,1.4,0.9,1.9,1.6v-1.7h4.5v12.9
			c0,1.5-0.3,2.6-0.8,3.5c-0.5,0.9-1.2,1.7-1.9,2.1c-0.8,0.5-1.7,0.9-2.6,1.1c-1,0.2-1.8,0.3-2.7,0.3
			C-90.3,487.1-91.4,487-92.5,486.6z M-86.6,476.8c0.5-0.2,1-0.5,1.2-1v-3.8c-0.3-0.4-0.7-0.7-1.2-1c-0.5-0.2-1.1-0.3-1.5-0.3
			c-0.9,0-1.7,0.3-2.2,0.8c-0.6,0.5-0.9,1.4-0.9,2.3c0,1.1,0.3,1.8,0.9,2.4c0.6,0.5,1.4,0.8,2.2,0.8
			C-87.7,477.2-87.1,477-86.6,476.8z"/>
		<path fill="#FFFFFF" d="M-75.1,486.6c-1-0.3-1.9-0.9-2.9-1.7l1.9-3.2c0.6,0.6,1.2,1,1.9,1.3c0.8,0.3,1.6,0.4,2.3,0.4
			c0.4,0,0.8,0,1.2-0.1c0.4-0.1,0.8-0.3,1.2-0.5c0.4-0.3,0.7-0.6,0.9-1c0.2-0.4,0.4-1,0.4-1.7v-1.1c-1.2,1.4-2.6,2-4.2,2
			c-0.9,0-1.7-0.2-2.4-0.5c-0.8-0.3-1.5-0.8-2-1.4c-0.6-0.6-1-1.4-1.4-2.2c-0.3-0.9-0.5-1.9-0.5-3.1s0.2-2.2,0.5-3.1
			s0.8-1.7,1.4-2.2c0.6-0.6,1.3-1.1,1.9-1.4c0.8-0.3,1.6-0.5,2.4-0.5c0.8,0,1.6,0.2,2.2,0.5c0.7,0.3,1.4,0.9,1.9,1.6v-1.7h4.5v12.9
			c0,1.5-0.3,2.6-0.8,3.5c-0.5,0.9-1.2,1.7-1.9,2.1c-0.8,0.5-1.7,0.9-2.6,1.1c-1,0.2-1.8,0.3-2.7,0.3
			C-72.9,487.1-74.1,487-75.1,486.6z M-69.3,476.8c0.5-0.2,1-0.5,1.2-1v-3.8c-0.3-0.4-0.7-0.7-1.2-1c-0.5-0.2-1.1-0.3-1.5-0.3
			c-0.9,0-1.7,0.3-2.2,0.8c-0.6,0.5-0.9,1.4-0.9,2.3c0,1.1,0.3,1.8,0.9,2.4c0.6,0.5,1.4,0.8,2.2,0.8
			C-70.3,477.2-69.8,477-69.3,476.8z"/>
		<path fill="#FFFFFF" d="M-50.6,473.1c0-0.9-0.2-1.5-0.7-1.8c-0.4-0.3-1-0.5-1.7-0.5c-0.7,0-1.3,0.2-1.7,0.5
			c-0.5,0.3-0.8,0.6-1.1,1v9.1h-4.6v-19.6h4.6v7.2c0.4-0.5,1.1-1,1.8-1.5c0.8-0.5,1.8-0.7,3-0.7c1.7,0,2.8,0.4,3.6,1.3
			c0.8,0.8,1.2,1.8,1.2,3.2v10.1h-4.6L-50.6,473.1L-50.6,473.1z"/>
		<path fill="#FFFFFF" d="M-39,481.2c-1-0.4-1.7-0.9-2.4-1.5c-0.7-0.7-1.3-1.5-1.7-2.3s-0.6-1.9-0.6-3.1c0-1,0.2-1.9,0.6-2.9
			c0.4-0.9,0.9-1.7,1.6-2.3c0.7-0.7,1.5-1.2,2.4-1.6c0.9-0.4,1.9-0.6,3-0.6s2,0.2,2.9,0.6c0.9,0.4,1.7,0.9,2.3,1.6
			c0.7,0.7,1.2,1.6,1.6,2.5s0.6,2,0.6,3.3v1h-10.1c0.1,0.7,0.5,1.3,1.1,1.7c0.6,0.5,1.5,0.8,2.4,0.8c0.3,0,0.6,0,0.9-0.1
			c0.3-0.1,0.7-0.1,1-0.2c0.3-0.1,0.7-0.2,1-0.4c0.3-0.2,0.6-0.3,0.8-0.5l1.9,2.8c-0.7,0.6-1.6,1.1-2.7,1.5
			c-1.1,0.3-2.1,0.5-3.3,0.5C-37.1,481.8-38.1,481.6-39,481.2z M-33.5,472c-0.1-0.3-0.3-0.6-0.5-0.8c-0.2-0.3-0.5-0.5-0.9-0.6
			c-0.4-0.2-0.8-0.2-1.4-0.2c-0.5,0-0.9,0.1-1.3,0.2c-0.4,0.2-0.7,0.4-0.9,0.6c-0.2,0.3-0.4,0.5-0.5,0.8s-0.2,0.6-0.3,0.8h5.8
			C-33.3,472.5-33.3,472.2-33.5,472z"/>
		<path fill="#FFFFFF" d="M-18.2,480c-0.5,0.5-1.1,1-1.8,1.3c-0.8,0.3-1.7,0.5-2.5,0.5c-0.6,0-1.1-0.1-1.7-0.3s-1.1-0.5-1.6-0.9
			c-0.5-0.4-0.9-0.9-1.2-1.5c-0.3-0.6-0.5-1.3-0.5-2c0-0.9,0.2-1.6,0.5-2.1c0.3-0.6,0.7-1.1,1.2-1.4c0.5-0.4,1-0.6,1.6-0.8
			s1.2-0.2,1.7-0.2c1,0,1.8,0.1,2.6,0.4c0.8,0.3,1.4,0.7,1.8,1.3v-1.7c0-0.6-0.3-1.2-0.8-1.5c-0.5-0.4-1.2-0.6-2.1-0.6
			c-0.7,0-1.5,0.1-2.1,0.4c-0.7,0.3-1.4,0.6-1.9,1.2l-1.7-2.8c0.9-0.8,1.9-1.4,3.1-1.7c1.2-0.4,2.2-0.5,3.4-0.5
			c0.9,0,1.7,0.1,2.4,0.3c0.8,0.2,1.6,0.5,2.1,0.9c0.6,0.4,1.1,1,1.5,1.7c0.4,0.8,0.6,1.7,0.6,2.7v8.8h-4.6V480L-18.2,480z
			 M-19.3,478.5c0.5-0.2,0.8-0.4,1.1-0.8v-1.3c-0.2-0.3-0.6-0.6-1.1-0.8c-0.5-0.2-1-0.3-1.5-0.3c-0.6,0-1.2,0.1-1.6,0.4
			c-0.5,0.3-0.7,0.7-0.7,1.3c0,0.6,0.2,1,0.7,1.3c0.5,0.3,1,0.4,1.6,0.4C-20.3,478.8-19.8,478.7-19.3,478.5z"/>
		<path fill="#FFFFFF" d="M-1,479.7c-0.6,0.7-1.3,1.2-1.9,1.6c-0.7,0.3-1.5,0.5-2.2,0.5c-0.9,0-1.7-0.2-2.4-0.5
			c-0.8-0.3-1.5-0.8-2-1.5c-0.6-0.7-1-1.5-1.4-2.3c-0.3-0.9-0.5-1.9-0.5-3.2c0-1.2,0.2-2.2,0.5-3.1s0.8-1.7,1.4-2.3
			c0.6-0.7,1.3-1.2,2-1.5c0.8-0.4,1.7-0.5,2.5-0.5c0.8,0,1.6,0.2,2.2,0.5c0.7,0.3,1.4,0.9,1.9,1.6v-7.1h4.5v19.6H-1V479.7z
			 M-2.1,477.4c0.5-0.2,1-0.6,1.3-1v-4.4c-0.3-0.4-0.7-0.7-1.3-1c-0.5-0.2-1.1-0.3-1.6-0.3c-0.9,0-1.7,0.3-2.2,1
			c-0.6,0.6-0.9,1.5-0.9,2.5s0.3,1.9,0.9,2.5c0.6,0.6,1.4,1,2.2,1C-3.2,477.8-2.6,477.6-2.1,477.4z"/>
		<path fill="#FFFFFF" d="M8.2,481.6c-0.3-0.2-0.6-0.4-0.9-0.6c-0.3-0.3-0.5-0.6-0.6-0.9c-0.2-0.3-0.2-0.7-0.2-1.1
			c0-0.4,0.1-0.7,0.2-1.1c0.2-0.3,0.4-0.6,0.6-0.9c0.3-0.3,0.6-0.5,0.9-0.6c0.3-0.2,0.7-0.2,1.1-0.2c0.4,0,0.7,0.1,1.1,0.2
			c0.3,0.2,0.6,0.4,0.9,0.6c0.3,0.3,0.5,0.6,0.6,0.9c0.2,0.3,0.2,0.7,0.2,1.1c0,0.4-0.1,0.7-0.2,1.1c-0.2,0.3-0.4,0.6-0.6,0.9
			c-0.3,0.3-0.6,0.5-0.9,0.6c-0.3,0.2-0.7,0.2-1.1,0.2C8.9,481.8,8.5,481.7,8.2,481.6z"/>
		<path fill="#FFFFFF" d="M15.3,465.2c-0.5-0.5-0.8-1.2-0.8-1.8s0.3-1.4,0.8-1.8c0.5-0.5,1.1-0.8,1.8-0.8c0.8,0,1.4,0.3,1.8,0.8
			c0.5,0.5,0.8,1.1,0.8,1.8c0,0.7-0.3,1.4-0.8,1.8c-0.5,0.5-1.1,0.8-1.8,0.8C16.3,465.9,15.8,465.6,15.3,465.2z M14.9,467.2h4.6
			v14.2h-4.6V467.2z"/>
		<path fill="#FFFFFF" d="M26.3,481.2c-1-0.4-1.7-1-2.4-1.7c-0.7-0.7-1.2-1.5-1.6-2.4c-0.4-0.9-0.5-1.8-0.5-2.8s0.2-1.9,0.5-2.8
			c0.4-0.9,0.9-1.7,1.6-2.3c0.7-0.7,1.5-1.3,2.4-1.7c1-0.4,2-0.6,3.2-0.6c1.3,0,2.3,0.2,3.3,0.6c1,0.4,1.7,1,2.4,1.7
			c0.7,0.7,1.2,1.5,1.6,2.3c0.4,0.9,0.5,1.8,0.5,2.8s-0.2,1.9-0.5,2.8c-0.4,0.9-0.9,1.7-1.6,2.4c-0.7,0.7-1.5,1.3-2.4,1.7
			c-1,0.4-2,0.6-3.3,0.6C28.3,481.8,27.1,481.6,26.3,481.2z M31.8,476.7c0.6-0.7,0.8-1.5,0.8-2.4s-0.3-1.7-0.8-2.4
			c-0.6-0.7-1.3-1-2.3-1c-1,0-1.7,0.3-2.2,1c-0.5,0.7-0.8,1.5-0.8,2.4s0.3,1.7,0.8,2.4c0.5,0.7,1.3,1,2.2,1
			C30.4,477.8,31.2,477.4,31.8,476.7z"/>
	</g>
</g>
</svg>
